<?xml version="1.0" encoding="UTF-8" standalone="no"?>
<!DOCTYPE svg PUBLIC "-//W3C//DTD SVG 1.1//EN" "http://www.w3.org/Graphics/SVG/1.1/DTD/svg11.dtd">
<svg width="100%" height="100%" viewBox="0 0 18991 2161" version="1.1" xmlns="http://www.w3.org/2000/svg" xmlns:xlink="http://www.w3.org/1999/xlink" xml:space="preserve" xmlns:serif="http://www.serif.com/" style="fill-rule:evenodd;clip-rule:evenodd;stroke-linejoin:round;stroke-miterlimit:2;">
    <g transform="matrix(1,0,0,1,0,-4874)">
        <g id="Banner" transform="matrix(8.79206,0,0,1.00255,0,7723.15)">
            <rect x="0" y="-2841.89" width="2159.95" height="2154.55" style="fill:none;"/>
            <g transform="matrix(0.113739,0,0,0.997454,56.8722,-3154.53)">
                <text x="2382.86px" y="1883.6px" style="font-family:'Aldrich-Regular', 'Aldrich';font-size:1400px;fill:rgb(195,16,20);">ALLUS INTERACTIVE</text>
            </g>
            <g transform="matrix(0.460759,0,0,4.01815,-125.781,-3316.15)">
                <g id="Favicon">
                    <g id="Stylized-A" serif:id="Stylized A">
                        <path d="M650.027,571.296L617.864,540C617.864,540 596.504,521.127 572.896,521.689L504.321,522.251C504.321,522.251 473.406,525.147 460.477,540L433.753,567.842C432.187,569.76 430.464,571.554 428.604,573.206L427.876,573.964L427.768,573.931C419.414,581.001 408.438,585.294 396.422,585.294C370.295,585.294 349.084,564.999 349.084,540C349.084,535 349.932,530.189 351.498,525.691L351.431,525.624L394.712,421.47C394.712,421.47 414.041,388.473 455.527,382.852L580.783,383.414L540.662,278.865L506.007,364.865L418.882,363.179L497.545,186.681L588.073,187.243L724.166,520.509C727.098,526.491 728.744,533.214 728.744,540.316C728.744,565.314 708.347,585.61 683.222,585.61C670.138,585.61 658.335,580.105 650.027,571.296ZM609.274,479.511C617.549,479.511 624.268,486.233 624.268,494.513C624.268,502.793 617.549,509.516 609.274,509.516C600.999,509.516 594.281,502.793 594.281,494.513C594.281,486.233 600.999,479.511 609.274,479.511ZM485.17,451.116C492.026,451.266 497.545,456.752 497.545,463.488C497.545,470.223 492.026,475.709 485.17,475.859L485.17,475.863L467.902,475.863L467.902,492.842C467.902,499.831 462.357,505.505 455.527,505.505C448.697,505.505 443.152,499.831 443.152,492.842L443.152,475.863L426.172,475.863C419.184,475.863 413.51,470.318 413.51,463.488C413.51,456.658 419.184,451.113 426.172,451.113L443.152,451.113L443.152,433.845L443.155,433.845C443.305,426.988 448.792,421.47 455.527,421.47C462.263,421.47 467.749,426.988 467.899,433.845L467.902,433.845L467.902,451.113L485.17,451.113L485.17,451.116ZM652.769,466.022C652.769,474.297 646.046,481.015 637.766,481.015C629.486,481.015 622.763,474.297 622.763,466.022C622.763,457.747 629.486,451.029 637.766,451.029C646.046,451.029 652.769,457.747 652.769,466.022ZM595.786,466.022C595.786,474.297 589.063,481.015 580.783,481.015C572.503,481.015 565.78,474.297 565.78,466.022C565.78,457.747 572.503,451.029 580.783,451.029C589.063,451.029 595.786,457.747 595.786,466.022ZM609.274,422.528C617.549,422.528 624.268,429.25 624.268,437.53C624.268,445.811 617.549,452.533 609.274,452.533C600.999,452.533 594.281,445.811 594.281,437.53C594.281,429.25 600.999,422.528 609.274,422.528Z" style="fill:rgb(195,16,20);"/>
                    </g>
                </g>
            </g>
        </g>
    </g>
</svg>
