<?xml version="1.0" encoding="UTF-8" standalone="no"?>
<!DOCTYPE svg PUBLIC "-//W3C//DTD SVG 1.1//EN" "http://www.w3.org/Graphics/SVG/1.1/DTD/svg11.dtd">
<svg width="100%" height="100%" viewBox="0 0 2160 2160" version="1.1" xmlns="http://www.w3.org/2000/svg" xmlns:xlink="http://www.w3.org/1999/xlink" xml:space="preserve" xmlns:serif="http://www.serif.com/" style="fill-rule:evenodd;clip-rule:evenodd;stroke-linejoin:round;stroke-miterlimit:2;">
    <g transform="matrix(1,0,0,1,-2950.46,-7721.5)">
        <g id="Game-Tiles" serif:id="Game Tiles" transform="matrix(1.99996,0,0,1.99996,2950.46,7721.5)">
            <rect x="0" y="0" width="1080" height="1080" style="fill:none;"/>
            <clipPath id="_clip1">
                <rect x="0" y="0" width="1080" height="1080"/>
            </clipPath>
            <g clip-path="url(#_clip1)">
                <g id="Grill-Master" serif:id="Grill Master">
                    <g id="Environment" transform="matrix(2.00039,0,0,2.00039,-82.2497,0)">
                        <rect id="Sky" x="0" y="0" width="960" height="230.821" style="fill:rgb(107,201,224);"/>
                        <g id="Clouds">
                            <path d="M308.08,133.485C308.08,133.485 330.547,104.317 356.562,135.061C356.562,135.061 375.482,133.485 379.817,143.733C379.817,143.733 377.058,153.587 362.474,151.616L290.343,150.434C290.343,150.434 266.693,140.974 308.08,133.485Z" style="fill:rgb(209,239,246);"/>
                            <path d="M0,74.056C0,74.056 24.921,77.209 28.075,98.967C28.075,98.967 70.329,102.623 44.472,120.976L0,120.976L0,74.056Z" style="fill:rgb(209,241,247);"/>
                        </g>
                        <rect id="Grass" x="0" y="230.555" width="960" height="144.731" style="fill:rgb(121,169,44);"/>
                        <g id="Bushes">
                            <path d="M0,194.687C0,194.687 10.522,195.081 14.069,197.446C14.069,197.446 16.434,179.314 43.237,184.833C43.237,184.833 75.952,157.241 94.478,197.84C94.478,197.84 124.829,196.657 127.982,230.555L0,231.344L0,194.687Z" style="fill:rgb(73,107,42);"/>
                        </g>
                        <g id="Bench">
                            <g id="Plank">
                                <g transform="matrix(1,0,0,1.03165,0,-15.2202)">
                                    <rect x="0.133" y="480.957" width="959.983" height="49.822" style="fill:rgb(203,63,41);"/>
                                </g>
                                <rect x="-0.179" y="532.307" width="960.07" height="7.588" style="fill:rgb(158,36,19);"/>
                            </g>
                            <g id="Plank1" serif:id="Plank" transform="matrix(1,0,0,1,0,-58.9375)">
                                <g transform="matrix(1,0,0,1.03165,0,-15.2202)">
                                    <rect x="0.133" y="480.957" width="959.983" height="49.822" style="fill:rgb(203,63,41);"/>
                                </g>
                                <rect x="-0.179" y="532.307" width="960.07" height="7.588" style="fill:rgb(158,36,19);"/>
                            </g>
                            <g id="Plank2" serif:id="Plank" transform="matrix(1,0,0,1,0,-117.875)">
                                <g transform="matrix(1,0,0,1.03165,0,-15.2202)">
                                    <rect x="0.133" y="480.957" width="959.983" height="49.822" style="fill:rgb(203,63,41);"/>
                                </g>
                                <rect x="-0.179" y="532.307" width="960.07" height="7.588" style="fill:rgb(158,36,19);"/>
                            </g>
                            <g id="Plank3" serif:id="Plank" transform="matrix(1,0,0,1,0,-176.813)">
                                <g transform="matrix(0.966785,0,0,0.942532,0.00441028,32.0796)">
                                    <path d="M959.907,480.529L32.488,480.315L-0.19,530.727L993.097,530.727L959.907,480.529Z" style="fill:rgb(203,63,41);"/>
                                </g>
                                <rect x="-0.179" y="532.307" width="960.07" height="7.588" style="fill:rgb(158,36,19);"/>
                            </g>
                        </g>
                    </g>
                    <g transform="matrix(1.25647,0,0,1.25647,-138.686,0)">
                        <g id="BBQ" transform="matrix(1.1364,0,0,1.1364,-5.56768,248.478)">
                            <g id="Body">
                                <path d="M46.545,383.155L67.436,448.98C67.436,448.98 71.377,463.958 92.662,461.593L873.102,462.382C873.102,462.382 890.445,461.987 893.992,447.403L913.7,383.549L46.545,383.155" style="fill:rgb(35,35,34);"/>
                                <path d="M51.137,397.623L909.307,397.785L913.554,384.003L46.979,384.003L51.137,397.623Z" style="fill:rgb(24,25,25);"/>
                            </g>
                            <g id="Left-Leg" serif:id="Left Leg">
                                <path d="M110.242,459.228L106.395,490.667C106.395,490.667 105.133,498.487 113.962,498.991L136.918,498.991C136.918,498.991 145.243,497.73 150.541,488.144L159.055,459.228L110.242,459.228Z" style="fill:rgb(35,35,34);"/>
                                <path d="M108.085,475.803L147.766,476.54L141.844,497.184C141.844,497.184 148.27,493.189 150.288,488.144L158.754,461.607L109.938,461.219L108.085,475.803Z" style="fill:rgb(25,26,25);"/>
                            </g>
                            <g id="Right-Leg" serif:id="Right Leg" transform="matrix(-1.01708,0,0,1,961.937,0)">
                                <path d="M109.611,462.382L106.395,490.667C106.395,490.667 105.133,498.487 113.962,498.991L136.918,498.991C136.918,498.991 145.243,497.73 150.541,488.144L158.49,460.961L109.611,462.382Z" style="fill:rgb(35,35,34);"/>
                                <path d="M108.085,475.803L147.766,476.54L141.711,497.187C141.711,497.187 148.27,493.189 150.288,488.144L158.109,462.255L109.422,462.382L108.085,475.803Z" style="fill:rgb(25,26,25);"/>
                            </g>
                            <g id="Left-Handle" serif:id="Left Handle">
                            </g>
                            <g id="Right-Handle" serif:id="Right Handle">
                            </g>
                            <g id="Grill">
                                <path id="Inside-Rim" serif:id="Inside Rim" d="M33.442,352.155L132.298,202.058C132.298,202.058 137.54,193.505 154.785,195.476L810.211,193.634C810.211,193.634 824.12,194.565 835.048,212.326L928.404,351.702L33.442,352.155Z" style="fill:rgb(38,37,39);"/>
                                <path id="Front-Lip" serif:id="Front Lip" d="M21.09,347.41C21.09,347.41 13.112,384.367 46.979,384.003L913.314,383.954C913.314,383.954 948,386.161 937.594,345.168L21.09,347.41Z" style="fill:rgb(36,37,35);"/>
                                <g id="Grill1" serif:id="Grill">
                                    <path id="Grill-Base" serif:id="Grill Base" d="M41.587,355.688L143.28,203.541L815.719,201.965L922.143,361.206L41.587,355.688Z" style="fill:rgb(22,22,22);"/>
                                    <path id="Grill-Bars" serif:id="Grill Bars" d="M97.163,353.48L173.158,214.105C173.158,214.105 183.563,208.429 186.401,217.258L112.614,356.634L164.644,356.003L226.448,213.159C226.448,213.159 235.908,208.429 239.061,215.366L181.671,356.003L232.124,356.003L278.478,213.789C278.478,213.789 286.991,207.798 291.721,215.681L249.467,356.318L298.343,356.634L327.984,215.366C327.984,215.366 335.867,204.96 342.174,217.258L314.425,356.003L363.301,356.318L379.698,214.735C379.698,214.735 387.266,207.168 393.257,214.42L378.122,356.949L426.682,355.372L428.574,215.051C428.574,215.051 436.773,207.483 441.818,215.681L442.133,356.003L491.009,356.949L479.973,215.051C479.973,215.051 484.387,208.429 492.901,214.105L507.091,355.688L555.336,356.003L531.371,216.312C531.371,216.312 537.047,205.591 544.3,215.681L571.103,355.372L626.285,357.579L583.085,214.105C583.085,214.105 589.707,203.068 598.537,212.213L639.845,355.372L688.721,356.318L637.637,211.897C637.637,211.897 644.259,203.068 654.034,212.528L703.541,355.057L740.435,354.111L686.198,210.951C686.198,210.951 694.712,202.753 701.649,209.69L755.255,356.318L796.879,356.634L733.497,211.582C733.497,211.582 738.543,204.33 747.372,209.059L811.384,355.057L855.845,355.057L776.205,211.222C776.205,211.222 783.083,204.556 790.966,210.232L872.242,354.742L872.558,360.733L94.641,361.679L97.163,353.48Z" style="fill:rgb(42,42,43);"/>
                                </g>
                                <path id="Top-Rim" serif:id="Top Rim" d="M21.09,347.41L123.966,196.446C123.966,196.446 132.638,188.169 150.769,188.957L811.384,188.563C811.384,188.563 828.333,186.198 840.552,204.33L935.939,342.286C935.939,342.286 948.552,365.936 920.961,366.33L44.74,367.512C44.74,367.512 20.696,369.089 21.09,347.41ZM41.508,343.055L133.131,204.857C133.131,204.857 136.456,197.649 155.77,197.649L808.632,197.166C808.632,197.166 820.601,196.639 827.705,206.821L918.157,343.296L41.508,343.055Z" style="fill:rgb(57,58,58);"/>
                            </g>
                        </g>
                        <g id="Flame" transform="matrix(0.852257,0,0,0.852257,-699.032,-561.668)">
                            <path d="M1665.99,1238.78C1665.99,1238.78 1552.4,1238.02 1608.54,1117.11C1608.54,1117.11 1618.79,1161.47 1637.5,1154.35C1637.5,1154.35 1652.64,1152.56 1648.19,1102.66C1648.19,1102.66 1654.87,1047.42 1700.32,1035.39C1700.32,1035.39 1682.5,1074.15 1711.45,1098.21C1711.45,1098.21 1769.82,1056.33 1769.82,1029.6C1769.82,1029.6 1772.49,1019.8 1769.37,1005.99C1769.37,1005.99 1807.69,1018.46 1818.83,1076.38C1818.83,1076.38 1811.25,1111.58 1835.76,1136.08C1835.76,1136.08 1847.34,1109.35 1858.03,1105.34C1858.03,1105.34 1854.47,1127.17 1878.53,1158.8C1878.53,1158.8 1897.68,1203.35 1877.63,1224.29C1877.63,1224.29 1865.62,1237.18 1848.69,1236.29L1753.33,1210.06L1665.99,1238.78Z" style="fill:rgb(240,113,0);"/>
                            <path d="M1665.99,1238.78C1665.99,1238.78 1655.96,1221.9 1664.17,1201.37C1664.17,1201.37 1685.84,1166.24 1683.1,1147.31C1683.1,1147.31 1696.33,1161.45 1702.72,1179.7C1702.72,1179.7 1708.19,1202.51 1719.37,1198.86C1719.37,1198.86 1737.62,1196.35 1740.81,1152.1C1740.81,1152.1 1748.57,1116.74 1768.41,1102.37C1768.41,1102.37 1761.57,1133.85 1776.85,1157.8C1776.85,1157.8 1785.29,1180.38 1809.7,1197.26C1809.7,1197.26 1819.05,1198.4 1824.07,1189.96C1824.07,1189.96 1836.16,1178.1 1837.07,1174C1837.07,1174 1853.27,1191.1 1854.41,1205.93C1854.41,1205.93 1858.97,1224.86 1848.71,1236.27C1848.71,1236.27 1787.57,1228.97 1758.15,1236.95C1758.15,1236.95 1705.96,1243.34 1665.99,1238.78Z" style="fill:rgb(255,189,0);"/>
                        </g>
                        <g id="Burger-Cooked" serif:id="Burger Cooked" transform="matrix(1.26269,0,0,1.26269,-19.9513,188.652)">
                            <path d="M123.343,270L123.343,289.674C123.343,289.674 129.129,321.762 204.319,319.744C204.319,319.744 265.553,321.56 284.035,290.077L284.035,270L123.343,270Z" style="fill:rgb(125,47,8);"/>
                            <path d="M123.343,270C123.343,270 126.37,230.729 209.869,233.757C209.869,233.757 278.99,232.078 284.035,270C284.035,270 282.017,299.093 207.347,303.634C207.347,303.634 126.674,309.018 123.343,270Z" style="fill:rgb(153,62,14);"/>
                            <path d="M131.415,270C131.415,270 130.406,237.541 209.869,238.55C209.869,238.55 275.71,237.123 277.224,270C277.224,270 272.935,294.3 206.842,298.336C206.842,298.336 138.278,302.459 131.415,270Z" style="fill:rgb(183,86,22);"/>
                            <g transform="matrix(1.55553,0,0,1.55553,-164.511,-154.779)">
                                <path d="M233.656,279.103C233.656,279.103 231.424,288.278 242.336,282.74L259.612,261.826C259.612,261.826 261.596,255.462 253.495,257.363L233.656,279.103Z" style="fill:rgb(114,41,1);"/>
                            </g>
                            <g transform="matrix(1.55553,0,0,1.55553,-194.531,-158.058)">
                                <path d="M233.656,279.103C233.656,279.103 231.424,288.278 242.336,282.74L259.612,261.826C259.612,261.826 261.596,255.462 253.495,257.363L233.656,279.103Z" style="fill:rgb(114,41,1);"/>
                            </g>
                            <path d="M233.656,279.103C233.656,279.103 231.424,288.278 242.336,282.74L259.612,261.826C259.612,261.826 261.596,255.462 253.495,257.363L233.656,279.103Z" style="fill:rgb(114,41,1);"/>
                            <g transform="matrix(1.22969,0,0,1.07868,-140.657,-32.2232)">
                                <path d="M233.656,279.103C233.656,279.103 231.424,288.278 242.336,282.74L259.612,261.826C259.612,261.826 261.596,255.462 253.495,257.363L233.656,279.103Z" style="fill:rgb(114,41,1);"/>
                            </g>
                        </g>
                        <g id="Burger-Cooked1" serif:id="Burger Cooked" transform="matrix(1.26269,0,0,1.26269,550.343,188.652)">
                            <path d="M123.343,270L123.343,289.674C123.343,289.674 129.129,321.762 204.319,319.744C204.319,319.744 265.553,321.56 284.035,290.077L284.035,270L123.343,270Z" style="fill:rgb(125,47,8);"/>
                            <path d="M123.343,270C123.343,270 126.37,230.729 209.869,233.757C209.869,233.757 278.99,232.078 284.035,270C284.035,270 282.017,299.093 207.347,303.634C207.347,303.634 126.674,309.018 123.343,270Z" style="fill:rgb(153,62,14);"/>
                            <path d="M131.415,270C131.415,270 130.406,237.541 209.869,238.55C209.869,238.55 275.71,237.123 277.224,270C277.224,270 272.935,294.3 206.842,298.336C206.842,298.336 138.278,302.459 131.415,270Z" style="fill:rgb(183,86,22);"/>
                            <g transform="matrix(1.55553,0,0,1.55553,-164.511,-154.779)">
                                <path d="M233.656,279.103C233.656,279.103 231.424,288.278 242.336,282.74L259.612,261.826C259.612,261.826 261.596,255.462 253.495,257.363L233.656,279.103Z" style="fill:rgb(114,41,1);"/>
                            </g>
                            <g transform="matrix(1.55553,0,0,1.55553,-194.531,-158.058)">
                                <path d="M233.656,279.103C233.656,279.103 231.424,288.278 242.336,282.74L259.612,261.826C259.612,261.826 261.596,255.462 253.495,257.363L233.656,279.103Z" style="fill:rgb(114,41,1);"/>
                            </g>
                            <path d="M233.656,279.103C233.656,279.103 231.424,288.278 242.336,282.74L259.612,261.826C259.612,261.826 261.596,255.462 253.495,257.363L233.656,279.103Z" style="fill:rgb(114,41,1);"/>
                            <g transform="matrix(1.22969,0,0,1.07868,-140.657,-32.2232)">
                                <path d="M233.656,279.103C233.656,279.103 231.424,288.278 242.336,282.74L259.612,261.826C259.612,261.826 261.596,255.462 253.495,257.363L233.656,279.103Z" style="fill:rgb(114,41,1);"/>
                            </g>
                        </g>
                        <g id="Sausage-Cooked" serif:id="Sausage Cooked" transform="matrix(0.982777,0,0,0.982777,72.1386,269.728)">
                            <path d="M315.464,284.422C315.464,284.422 378.755,242.703 409.689,228.457C409.689,228.457 428.615,220.113 445.506,230.492C445.506,230.492 467.892,242.703 448.355,263.054C448.355,263.054 373.668,315.559 358.201,322.478C358.201,322.478 331.745,336.113 309.563,321.461C309.563,321.461 288.194,302.941 315.464,284.422Z" style="fill:rgb(144,41,13);"/>
                            <path d="M324.215,278.927C324.215,278.927 289.008,304.162 314.447,318.001C314.447,318.001 335.205,332.857 366.341,312.303L441.029,263.257C441.029,263.257 468.029,246.388 433.906,226.086C433.906,226.086 473.12,233.93 448.152,263.868C448.152,263.868 408.061,293.58 365.324,319.018C365.324,319.018 337.647,338.148 308.748,321.868C308.748,321.868 283.717,298.668 324.215,278.927Z" style="fill:rgb(128,34,3);"/>
                            <path d="M319.079,288.294C319.079,288.294 373.652,252.997 399.571,239.061C399.571,239.061 422.234,223.822 436.821,234.633C436.821,234.633 447.762,244.792 427.313,256.514L353.855,304.835C353.855,304.835 332.456,316.427 316.735,309.915C316.735,309.915 301.849,302.491 319.079,288.294" style="fill:rgb(176,58,27);"/>
                            <g transform="matrix(1,0,0,1,4.05271,2.51872)">
                                <path d="M331.752,283.735L355.587,283.866C355.587,283.866 361.448,283.735 361.057,287.382C361.057,287.382 361.708,291.55 355.717,291.811L330.71,292.071C330.71,292.071 325.891,292.853 325.63,288.424C325.63,288.424 323.937,284.387 331.752,283.735Z" style="fill:rgb(116,36,10);"/>
                            </g>
                            <g transform="matrix(1,0,0,1,35.7024,-17.2786)">
                                <path d="M331.752,283.735L355.587,283.866C355.587,283.866 361.448,283.735 361.057,287.382C361.057,287.382 361.708,291.55 355.717,291.811L330.71,292.071C330.71,292.071 325.891,292.853 325.63,288.424C325.63,288.424 323.937,284.387 331.752,283.735Z" style="fill:rgb(116,36,10);"/>
                            </g>
                            <g transform="matrix(1,0,0,1,66.9613,-38.3784)">
                                <path d="M331.752,283.735L355.587,283.866C355.587,283.866 361.448,283.735 361.057,287.382C361.057,287.382 361.708,291.55 355.717,291.811L330.71,292.071C330.71,292.071 325.891,292.853 325.63,288.424C325.63,288.424 323.937,284.387 331.752,283.735Z" style="fill:rgb(116,36,10);"/>
                            </g>
                        </g>
                    </g>
                    <g transform="matrix(2.17174,0,0,2.15338,-154.544,-52.1494)">
                        <text x="79.15px" y="115.6px" style="font-family:'DynaPuffSemiCondensed-Bold', 'DynaPuff SemiCondensed';font-weight:700;font-stretch:semi-condensed;font-size:115.527px;fill:rgb(158,36,19);">Grill</text>
                        <text x="79.15px" y="231.127px" style="font-family:'DynaPuffSemiCondensed-Bold', 'DynaPuff SemiCondensed';font-weight:700;font-stretch:semi-condensed;font-size:115.527px;fill:rgb(158,36,19);">Mast<tspan x="333.08px " y="231.127px ">e</tspan>r</text>
                    </g>
                </g>
            </g>
        </g>
    </g>
</svg>
